<?xml version="1.0" encoding="utf-8"?>
<?xml-stylesheet type="text/xsl" href="rss1.xsl"?>
<rss version="2.0" xmlns:atom="http://www.w3.org/2005/Atom" xmlns:content="http://purl.org/rss/1.0/modules/content/" xmlns:dc="http://purl.org/dc/elements/1.1/" xmlns:media="http://search.yahoo.com/mrss/">
<channel>
 <title>Getty</title>
 <link>http://www.gettyimg.com/</link>
 <atom:link href="http://www.gettyimg.com/" rel="self" type="application/rss+xml" />

 
                <item>
                <title><![CDATA[【Requests】[REQ AUD] - Megan Mckenna - This (16bit/44.1khz Flac)]]></title>
                <link><![CDATA[https://sharemania.us/threads/megan-mckenna-this-16bit-44-1khz-flac.237552/]]></link>
                <description><![CDATA[<article>
<blockquote class="messageText SelectQuoteContainer ugc baseHtml">
<a href="https://www.qobuz.com/be-nl/album/this-megan-mckenna/s5bzk0xaxfwua" target="_blank" class="externalLink" rel="nofollow">https://www.qobuz.com/be-nl/album/this-megan-mckenna/s5bzk0xaxfwua</a><br>
<br>
Can someone share please. Thank you.
<div class="messageTextEndMarker">&nbsp;</div>
</blockquote>
</article>]]></description>
                <author><![CDATA[laxusdl]]></author>
                </item>

                
                <item>
                <title><![CDATA[【Cinema Center】SERIES - Mickey Mouse Funhouse - Season 2 - 1080p Disney+ WEB-DL DDP5.1 H.264-LAZY]]></title>
                <link><![CDATA[https://sharemania.us/threads/mickey-mouse-funhouse-season-2-1080p-disney-web-dl-ddp5-1-h-264-lazy.237554/]]></link>
                <description><![CDATA[<article>
<blockquote class="messageText SelectQuoteContainer ugc baseHtml">
Mickey Mouse Funhouse:<img src="https://cdn2.broadcasthe.net/tvdb/banners/v4/series/405715/banners/645957d66975b.jpg" class="bbCodeImage LbImage" alt="[​IMG]" data-url="https://cdn2.broadcasthe.net/tvdb/banners/v4/series/405715/banners/645957d66975b.jpg" style=""><br>
<br>
<div class="bbCodeBlock bbCodeQuote">
<aside>
<blockquote class="quoteContainer"><div class="quote"><i><b>Synopsis:</b></i><br>
Mickey Mouse, and his friends – Minnie, Goofy, Donald, Daisy and Pluto – meet Funny, an enchanted talking playhouse, who takes the Sensational Six on adventures of all types to unique worlds that inspire the imagination.</div><div class="quoteExpand">Click to expand...</div></blockquote>
</aside>
</div>
<div class="ToggleTriggerAnchor bbCodeSpoilerContainer">
<button type="button" class="button bbCodeSpoilerButton ToggleTrigger Tooltip JsOnly" data-target="> .SpoilerTarget"><span>Spoiler: <span class="SpoilerTitle">MediaInfo</span></span></button>
<div class="SpoilerTarget bbCodeSpoilerText">General<br>
Unique ID : 133676761749301255545151066832755980337 (0x649135347D3426E0DF052BB55A077831)<br>
Complete name : Mickey.Mouse.Funhouse.S02E01E02.The.Enchanted.Tea.Party.-.Unhappy.Campers.1080p.DSNP.WEB-DL.DDP5.1.H.264-LAZY.mkv<br>
Format : Matroska<br>
Format version : Version 4<br>
File size : 1.27 GiB<br>
Duration : 24 min 3 s<br>
Overall bit rate mode : Variable<br>
Overall bit rate : 7 570 kb/s<br>
Frame rate : 23.976 FPS<br>
Encoded date : 2024-02-02 15:42:34 UTC<br>
Writing application : mkvmerge v82.0 ('I'm The President') 64-bit<br>
Writing library : libebml v1.4.5 + libmatroska v1.7.1<br>
<br>
Video<br>
ID : 1<br>
Format : AVC<br>
Format/Info : Advanced Video Codec<br>
Format profile : High@L4<br>
Format settings : CABAC / 4 Ref Frames<br>
Format settings, CABAC : Yes<br>
Format settings, Reference frames : 4 frames<br>
Codec ID : V_MPEG4/ISO/AVC<br>
Duration : 24 min 3 s<br>
Bit rate mode : Variable<br>
Bit rate : 7 308 kb/s<br>
Maximum bit rate : 12.7 Mb/s<br>
Width : 1 920 pixels<br>
Height : 1 080 pixels<br>
Display aspect ratio : 16:9<br>
Frame rate mode : Constant<br>
Frame rate : 23.976 (24000/1001) FPS<br>
Color space : YUV<br>
Chroma subsampling : 4:2:0<br>
Bit depth : 8 bits<br>
Scan type : Progressive<br>
Bits/(Pixel*Frame) : 0.147<br>
Stream size : 1.23 GiB (97%)<br>
Default : Yes<br>
Forced : No<br>
Color range : Limited<br>
Color primaries : BT.709<br>
Transfer characteristics : BT.709<br>
Matrix coefficients : BT.709<br>
<br>
Audio<br>
ID : 2<br>
Format : E-AC-3<br>
Format/Info : Enhanced AC-3<br>
Commercial name : Dolby Digital Plus<br>
Codec ID : A_EAC3<br>
Duration : 24 min 3 s<br>
Bit rate mode : Constant<br>
Bit rate : 256 kb/s<br>
Channel(s) : 6 channels<br>
Channel layout : L R C LFE Ls Rs<br>
Sampling rate : 48.0 kHz<br>
Frame rate : 31.250 FPS (1536 SPF)<br>
Compression mode : Lossy<br>
Stream size : 44.1 MiB (3%)<br>
Language : English<br>
Service kind : Complete Main<br>
Default : Yes<br>
Forced : No<br>
<br>
Text #1<br>
ID : 3<br>
Format : UTF-8<br>
Codec ID : S_TEXT/UTF8<br>
Codec ID/Info : UTF-8 Plain Text<br>
Duration : 23 min 34 s<br>
Bit rate : 99 b/s<br>
Frame rate : 0.361 FPS<br>
Count of elements : 510<br>
Stream size : 17.1 KiB (0%)<br>
Title : SDH<br>
Language : English<br>
Default : No<br>
Forced : No<br>
<br>
Text #2<br>
ID : 4<br>
Format : UTF-8<br>
Codec ID : S_TEXT/UTF8<br>
Codec ID/Info : UTF-8 Plain Text<br>
Duration : 23 min 57 s<br>
Bit rate : 70 b/s<br>
Frame rate : 0.211 FPS<br>
Count of elements : 303<br>
Stream size : 12.3 KiB (0%)<br>
Language : Czech<br>
Default : No<br>
Forced : No<br>
<br>
Text #3<br>
ID : 5<br>
Format : UTF-8<br>
Codec ID : S_TEXT/UTF8<br>
Codec ID/Info : UTF-8 Plain Text<br>
Duration : 23 min 35 s<br>
Bit rate : 69 b/s<br>
Frame rate : 0.215 FPS<br>
Count of elements : 304<br>
Stream size : 12.0 KiB (0%)<br>
Language : Danish<br>
Default : No<br>
Forced : No<br>
<br>
Text #4<br>
ID : 6<br>
Format : UTF-8<br>
Codec ID : S_TEXT/UTF8<br>
Codec ID/Info : UTF-8 Plain Text<br>
Duration : 23 min 57 s<br>
Bit rate : 74 b/s<br>
Frame rate : 0.211 FPS<br>
Count of elements : 303<br>
Stream size : 13.1 KiB (0%)<br>
Language : German<br>
Default : No<br>
Forced : No<br>
<br>
Text #5<br>
ID : 7<br>
Format : UTF-8<br>
Codec ID : S_TEXT/UTF8<br>
Codec ID/Info : UTF-8 Plain Text<br>
Duration : 23 min 57 s<br>
Bit rate : 127 b/s<br>
Frame rate : 0.216 FPS<br>
Count of elements : 311<br>
Stream size : 22.3 KiB (0%)<br>
Language : Greek<br>
Default : No<br>
Forced : No<br>
<br>
Text #6<br>
ID : 8<br>
Format : UTF-8<br>
Codec ID : S_TEXT/UTF8<br>
Codec ID/Info : UTF-8 Plain Text<br>
Duration : 23 min 28 s<br>
Bit rate : 81 b/s<br>
Frame rate : 0.307 FPS<br>
Count of elements : 432<br>
Stream size : 14.1 KiB (0%)<br>
Title : Latin American<br>
Language : Spanish<br>
Default : No<br>
Forced : No<br>
<br>
Text #7<br>
ID : 9<br>
Format : UTF-8<br>
Codec ID : S_TEXT/UTF8<br>
Codec ID/Info : UTF-8 Plain Text<br>
Duration : 23 min 35 s<br>
Bit rate : 72 b/s<br>
Frame rate : 0.215 FPS<br>
Count of elements : 305<br>
Stream size : 12.5 KiB (0%)<br>
Title : European<br>
Language : Spanish<br>
Default : No<br>
Forced : No<br>
<br>
Text #8<br>
ID : 10<br>
Format : UTF-8<br>
Codec ID : S_TEXT/UTF8<br>
Codec ID/Info : UTF-8 Plain Text<br>
Duration : 23 min 36 s<br>
Bit rate : 95 b/s<br>
Frame rate : 0.333 FPS<br>
Count of elements : 471<br>
Stream size : 16.6 KiB (0%)<br>
Title : European (SDH)<br>
Language : Spanish<br>
Default : No<br>
Forced : No<br>
<br>
Text #9<br>
ID : 11<br>
Format : UTF-8<br>
Codec ID : S_TEXT/UTF8<br>
Codec ID/Info : UTF-8 Plain Text<br>
Duration : 23 min 35 s<br>
Bit rate : 68 b/s<br>
Frame rate : 0.208 FPS<br>
Count of elements : 295<br>
Stream size : 11.8 KiB (0%)<br>
Language : Finnish<br>
Default : No<br>
Forced : No<br>
<br>
Text #10<br>
ID : 12<br>
Format : UTF-8<br>
Codec ID : S_TEXT/UTF8<br>
Codec ID/Info : UTF-8 Plain Text<br>
Duration : 23 min 53 s<br>
Bit rate : 77 b/s<br>
Frame rate : 0.315 FPS<br>
Count of elements : 452<br>
Stream size : 13.6 KiB (0%)<br>
Language : French<br>
Default : No<br>
Forced : No<br>
<br>
Text #11<br>
ID : 13<br>
Format : UTF-8<br>
Codec ID : S_TEXT/UTF8<br>
Codec ID/Info : UTF-8 Plain Text<br>
Duration : 23 min 30 s<br>
Bit rate : 104 b/s<br>
Frame rate : 0.391 FPS<br>
Count of elements : 551<br>
Stream size : 17.9 KiB (0%)<br>
Title : SDH<br>
Language : French<br>
Default : No<br>
Forced : No<br>
<br>
Text #12<br>
ID : 14<br>
Format : UTF-8<br>
Codec ID : S_TEXT/UTF8<br>
Codec ID/Info : UTF-8 Plain Text<br>
Duration : 23 min 57 s<br>
Bit rate : 74 b/s<br>
Frame rate : 0.213 FPS<br>
Count of elements : 306<br>
Stream size : 13.1 KiB (0%)<br>
Language : Hungarian<br>
Default : No<br>
Forced : No<br>
<br>
Text #13<br>
ID : 15<br>
Format : UTF-8<br>
Codec ID : S_TEXT/UTF8<br>
Codec ID/Info : UTF-8 Plain Text<br>
Duration : 23 min 35 s<br>
Bit rate : 73 b/s<br>
Frame rate : 0.224 FPS<br>
Count of elements : 317<br>
Stream size : 12.8 KiB (0%)<br>
Language : Italian<br>
Default : No<br>
Forced : No<br>
<br>
Text #14<br>
ID : 16<br>
Format : UTF-8<br>
Codec ID : S_TEXT/UTF8<br>
Codec ID/Info : UTF-8 Plain Text<br>
Duration : 23 min 57 s<br>
Bit rate : 71 b/s<br>
Frame rate : 0.289 FPS<br>
Count of elements : 415<br>
Stream size : 12.6 KiB (0%)<br>
Language : Japanese<br>
Default : No<br>
Forced : No<br>
<br>
Text #15<br>
ID : 17<br>
Format : UTF-8<br>
Codec ID : S_TEXT/UTF8<br>
Codec ID/Info : UTF-8 Plain Text<br>
Duration : 23 min 57 s<br>
Bit rate : 78 b/s<br>
Frame rate : 0.299 FPS<br>
Count of elements : 429<br>
Stream size : 13.8 KiB (0%)<br>
Language : Korean<br>
Default : No<br>
Forced : No<br>
<br>
Text #16<br>
ID : 18<br>
Format : UTF-8<br>
Codec ID : S_TEXT/UTF8<br>
Codec ID/Info : UTF-8 Plain Text<br>
Duration : 23 min 57 s<br>
Bit rate : 60 b/s<br>
Frame rate : 0.185 FPS<br>
Count of elements : 266<br>
Stream size : 10.6 KiB (0%)<br>
Language : Dutch<br>
Default : No<br>
Forced : No<br>
<br>
Text #17<br>
ID : 19<br>
Format : UTF-8<br>
Codec ID : S_TEXT/UTF8<br>
Codec ID/Info : UTF-8 Plain Text<br>
Duration : 23 min 35 s<br>
Bit rate : 68 b/s<br>
Frame rate : 0.223 FPS<br>
Count of elements : 316<br>
Stream size : 11.8 KiB (0%)<br>
Language : Norwegian<br>
Default : No<br>
Forced : No<br>
<br>
Text #18<br>
ID : 20<br>
Format : UTF-8<br>
Codec ID : S_TEXT/UTF8<br>
Codec ID/Info : UTF-8 Plain Text<br>
Duration : 23 min 35 s<br>
Bit rate : 67 b/s<br>
Frame rate : 0.215 FPS<br>
Count of elements : 305<br>
Stream size : 11.6 KiB (0%)<br>
Language : Polish<br>
Default : No<br>
Forced : No<br>
<br>
Text #19<br>
ID : 21<br>
Format : UTF-8<br>
Codec ID : S_TEXT/UTF8<br>
Codec ID/Info : UTF-8 Plain Text<br>
Duration : 23 min 29 s<br>
Bit rate : 89 b/s<br>
Frame rate : 0.333 FPS<br>
Count of elements : 469<br>
Stream size : 15.4 KiB (0%)<br>
Title : Brazilian<br>
Language : Portuguese<br>
Default : No<br>
Forced : No<br>
<br>
Text #20<br>
ID : 22<br>
Format : UTF-8<br>
Codec ID : S_TEXT/UTF8<br>
Codec ID/Info : UTF-8 Plain Text<br>
Duration : 23 min 35 s<br>
Bit rate : 70 b/s<br>
Frame rate : 0.210 FPS<br>
Count of elements : 297<br>
Stream size : 12.2 KiB (0%)<br>
Title : European<br>
Language : Portuguese<br>
Default : No<br>
Forced : No<br>
<br>
Text #21<br>
ID : 23<br>
Format : UTF-8<br>
Codec ID : S_TEXT/UTF8<br>
Codec ID/Info : UTF-8 Plain Text<br>
Duration : 23 min 35 s<br>
Bit rate : 70 b/s<br>
Frame rate : 0.213 FPS<br>
Count of elements : 302<br>
Stream size : 12.3 KiB (0%)<br>
Language : Romanian<br>
Default : No<br>
Forced : No<br>
<br>
Text #22<br>
ID : 24<br>
Format : UTF-8<br>
Codec ID : S_TEXT/UTF8<br>
Codec ID/Info : UTF-8 Plain Text<br>
Duration : 23 min 35 s<br>
Bit rate : 74 b/s<br>
Frame rate : 0.215 FPS<br>
Count of elements : 305<br>
Stream size : 12.8 KiB (0%)<br>
Language : Slovak<br>
Default : No<br>
Forced : No<br>
<br>
Text #23<br>
ID : 25<br>
Format : UTF-8<br>
Codec ID : S_TEXT/UTF8<br>
Codec ID/Info : UTF-8 Plain Text<br>
Duration : 23 min 35 s<br>
Bit rate : 72 b/s<br>
Frame rate : 0.223 FPS<br>
Count of elements : 315<br>
Stream size : 12.5 KiB (0%)<br>
Language : Swedish<br>
Default : No<br>
Forced : No<br>
<br>
Text #24<br>
ID : 26<br>
Format : UTF-8<br>
Codec ID : S_TEXT/UTF8<br>
Codec ID/Info : UTF-8 Plain Text<br>
Duration : 23 min 35 s<br>
Bit rate : 63 b/s<br>
Frame rate : 0.182 FPS<br>
Count of elements : 257<br>
Stream size : 11.0 KiB (0%)<br>
Language : Turkish<br>
Default : No<br>
Forced : No<br>
<br>
Text #25<br>
ID : 27<br>
Format : UTF-8<br>
Codec ID : S_TEXT/UTF8<br>
Codec ID/Info : UTF-8 Plain Text<br>
Duration : 23 min 57 s<br>
Bit rate : 69 b/s<br>
Frame rate : 0.296 FPS<br>
Count of elements : 426<br>
Stream size : 12.1 KiB (0%)<br>
Title : Traditional, Hong Kong<br>
Language : Chinese<br>
Default : No<br>
Forced : No<br>
<br>
Text #26<br>
ID : 28<br>
Format : UTF-8<br>
Codec ID : S_TEXT/UTF8<br>
Codec ID/Info : UTF-8 Plain Text<br>
Duration : 23 min 57 s<br>
Bit rate : 66 b/s<br>
Frame rate : 0.296 FPS<br>
Count of elements : 425<br>
Stream size : 11.6 KiB (0%)<br>
Title : Simplified<br>
Language : Chinese<br>
Default : No<br>
Forced : No<br>
<br>
Text #27<br>
ID : 29<br>
Format : UTF-8<br>
Codec ID : S_TEXT/UTF8<br>
Codec ID/Info : UTF-8 Plain Text<br>
Duration : 23 min 57 s<br>
Bit rate : 69 b/s<br>
Frame rate : 0.299 FPS<br>
Count of elements : 429<br>
Stream size : 12.2 KiB (0%)<br>
Title : Traditional<br>
Language : Chinese<br>
Default : No<br>
Forced : No<br>
<br>
Menu<br>
00:00:01.001 : en:Intro<br>
00:00:47.756 : en:Scene 1<br>
00:00:49.591 : en:Scene 2<br>
00:11:30.649 : en:Scene 3<br>
00:12:31.335 : en:Scene 4<br>
00:23:32.412 : en:Credits</div>
</div><br>
Screenshots:<br>
<img src="https://i.imgur.com/P2yM5qT.jpeg" class="bbCodeImage LbImage" alt="[​IMG]" data-url="https://i.imgur.com/P2yM5qT.jpeg" style=""> <br>
<br>
<div class="bbCodeBlock bbCodeVfcHH HiddenContent">
<div class="attribution type">Hidden Content:</div>
<blockquote>You must either reply or click 'Like' to see the hidden information contained here.</blockquote>
</div>
<div class="messageTextEndMarker">&nbsp;</div>
</blockquote>
</article>]]></description>
                <author><![CDATA[LazyRips]]></author>
                </item>

                
                <item>
                <title><![CDATA[【Singles (lossless)】FLAC - Beyoncé - TEXAS HOLD 'EM / 16 CARRIAGES | Qobuz .FLAC 24bits ／ 44.1kHz]]></title>
                <link><![CDATA[https://sharemania.us/threads/beyonc%C3%A9-texas-hold-em-16-carriages-qobuz-flac-24bits-%EF%BC%8F-44-1khz.237553/]]></link>
                <description><![CDATA[<article>
<blockquote class="messageText SelectQuoteContainer ugc baseHtml">
<div style="text-align: center"><img src="https://static.stereogum.com/uploads/2024/02/beyonce-texas-hold-em-1707704831.jpeg" class="bbCodeImage LbImage" alt="[​IMG]" data-url="https://static.stereogum.com/uploads/2024/02/beyonce-texas-hold-em-1707704831.jpeg" style=""> <img src="https://ratedrnb.com/cdn/2024/02/beyonce-16-carriages-scaled.jpg" class="bbCodeImage LbImage" alt="[​IMG]" data-url="https://ratedrnb.com/cdn/2024/02/beyonce-16-carriages-scaled.jpg" style=""><br>
<br>
<br>
<span style="font-family: 'Times New Roman'"><span style="font-size: 18px"><b>Pixeldrain:</b><br>
<br>
<div class="bbCodeBlock bbCodeVfcHH HiddenContent">
<div class="attribution type">Hidden Content:</div>
<blockquote>You must reply before you can see the hidden data contained here.</blockquote>
</div>
<div class="bbCodeBlock bbCodeVfcHH HiddenContent">
<div class="attribution type">Hidden Content:</div>
<blockquote>You must reply before you can see the hidden data contained here.</blockquote>
</div></span></span>​</div>
<div class="messageTextEndMarker">&nbsp;</div>
</blockquote>
</article>]]></description>
                <author><![CDATA[Nuric]]></author>
                </item>

                </channel></rss>